<svg version="1.1" xmlns="http://www.w3.org/2000/svg" style="display: block;" viewBox="0 0 2048 2048" width="980" height="980" preserveAspectRatio="none">
<path transform="translate(0,0)" fill="rgb(14,170,130)" d="M 979.08 0 L 1068.58 0 C 1086.48 3.24457 1108.01 2.6029 1126.48 4.51642 C 1168.08 8.85048 1209.4 15.567 1250.23 24.6328 C 1494.95 80.0863 1710.8 223.47 1856.78 427.563 C 1947.36 553.566 2007.88 698.639 2033.7 851.658 C 2040.26 890.913 2044.61 929.701 2046.21 969.408 C 2046.4 974.261 2046.9 982.756 2048 987.407 L 2048 1059.88 L 2047.83 1060.86 C 2044.99 1078.27 2045.05 1105.96 2043.37 1124.63 C 2039.66 1163.29 2033.73 1201.71 2025.62 1239.7 C 1972.25 1485.98 1830.17 1704.04 1626.44 1852.35 C 1500.13 1944.67 1354.18 2006.54 1200 2033.1 C 1173.65 2037.65 1147.13 2041.17 1120.51 2043.67 C 1109.95 2044.59 1076.52 2046.07 1068.49 2048 L 980.389 2048 C 974.043 2046.31 938.473 2044.64 929.493 2043.85 C 902.029 2041.29 874.678 2037.65 847.503 2032.93 C 694.559 2006.36 549.696 1945.23 423.951 1854.21 C 217.817 1705.4 74.4527 1485.2 21.7822 1236.49 C 13.9546 1199.25 8.13454 1161.63 4.34734 1123.77 C 2.57512 1104.46 3.31676 1081.23 0 1062.58 L 0 985.519 C 2.43772 975.372 2.56207 944.091 3.8011 931.803 C 6.48828 905.153 9.47482 879.614 13.9346 853.111 C 40.0326 696.919 102.011 548.912 194.996 420.73 C 341.664 218.586 557.442 77.3234 801.377 23.7535 C 841.11 15.0753 881.304 8.66311 921.765 4.54796 C 938.809 2.81125 962.278 2.79826 978.107 0.170974 L 979.08 0 z"/>
<path transform="translate(0,0)" fill="rgb(254,254,254)" d="M 960.569 438.407 C 985.416 434.863 1025.75 440.815 1049.71 447.867 C 1117.6 468.197 1174.71 514.539 1208.58 576.793 C 1209.39 576.552 1210.2 576.319 1211.01 576.096 C 1280.97 556.536 1355.85 565.894 1418.83 602.07 C 1476.06 635.003 1517.67 689.532 1534.32 753.423 C 1553.08 825.003 1540.58 896.948 1503.43 960.264 C 1504.01 960.807 1504.57 961.357 1505.14 961.913 C 1556.98 1012.68 1586.3 1082.11 1586.55 1154.67 C 1586.76 1220.95 1560.28 1284.52 1513.08 1331.06 C 1460.08 1383.6 1392.42 1407.62 1318.61 1407.44 C 1309.63 1446.12 1288.74 1486.02 1263.48 1516.42 C 1220.22 1569.15 1157.76 1602.49 1089.87 1609.07 C 1063.91 1612.01 1030.59 1608.9 1005.5 1601.99 C 930.917 1581.42 877.422 1536.97 839.149 1471.08 C 766.821 1490.15 693.839 1483.69 628.599 1445.45 C 571.307 1412.34 529.744 1357.57 513.272 1293.48 C 495.057 1222.59 507.254 1150.02 544.41 1087.42 C 543.886 1086.93 543.368 1086.43 542.856 1085.93 C 491.515 1035.74 462.153 967.246 461.201 895.452 C 460.422 829.619 485.976 766.202 532.18 719.301 C 585.825 664.895 653.866 640.678 729.259 640.188 C 737.955 601.963 759.268 561.478 784.096 531.5 C 827.965 477.947 891.6 444.378 960.569 438.407 z"/>
<path transform="translate(0,0)" fill="rgb(14,170,130)" d="M 707.768 710.407 C 711.473 709.927 718.019 709.906 721.963 709.768 L 721.868 1044.78 C 749.336 1058.56 779.878 1076.1 807.143 1090.89 L 958.16 1172.96 L 889.602 1215.03 L 821.575 1175.63 C 769.512 1146.45 718.162 1115.39 666.174 1085.99 C 646.645 1074.95 621.096 1061.51 604.038 1047.49 C 562.896 1013.8 536.793 965.179 531.457 912.277 C 526.489 864.338 540.948 816.408 571.598 779.213 C 605.978 737.906 654.717 715.103 707.768 710.407 z"/>
<path transform="translate(0,0)" fill="rgb(14,170,130)" d="M 1185.93 1006.47 C 1206.85 1016.5 1235.89 1033.26 1256.71 1044.84 L 1256.7 1256.66 L 1256.77 1321.48 C 1256.78 1336.63 1257.23 1353.55 1255.4 1368.4 C 1252.78 1388.72 1247.08 1408.51 1238.5 1427.11 C 1217.3 1474.26 1178.24 1511.06 1129.91 1529.41 C 1081.56 1547.25 1034.4 1543.24 988.174 1521.74 C 950.6 1503.91 924.858 1477.08 902.841 1442.59 C 917.134 1434.78 931.223 1426.15 945.409 1418.09 C 1028.16 1371.05 1110.03 1322.02 1192.98 1275.37 C 1190.32 1187.18 1186.96 1094.48 1185.93 1006.47 z"/>
<path transform="translate(0,0)" fill="rgb(14,170,130)" d="M 1157.75 832.757 C 1162.94 834.889 1185.54 848.496 1191.38 851.88 L 1263.03 893.344 L 1373.6 957.154 C 1391.12 967.212 1424 984.933 1439.11 996.565 C 1458.63 1011.72 1475.24 1030.29 1488.15 1051.37 C 1515.37 1095.28 1523.88 1148.26 1511.77 1198.49 C 1499.05 1249.35 1467.83 1285.41 1423.71 1312.05 C 1391.39 1329.82 1362.54 1336.81 1326.01 1338.09 L 1326.02 1003.1 C 1299.83 990.36 1266.6 970.925 1240 956.493 L 1089.75 874.769 C 1110.09 861.027 1136.28 846.292 1157.75 832.757 z"/>
<path transform="translate(0,0)" fill="rgb(14,170,130)" d="M 970.547 507.422 C 987.895 506.444 1005.29 508.104 1022.14 512.346 C 1074.61 525.286 1116.94 559.106 1144.67 604.982 C 1117.13 622.691 1076.2 644.71 1046.62 661.789 L 854.915 772.361 L 859.146 932.718 C 860.578 968.235 861.277 1005.87 862.021 1041.45 C 838.8 1029.41 814.028 1015.69 791.171 1002.89 L 791.219 788.513 C 791.191 757.345 789.069 692.418 794.925 664.302 C 801.891 630.649 817.254 599.304 839.586 573.182 C 873.945 533.196 918.224 511.256 970.547 507.422 z"/>
<path transform="translate(0,0)" fill="rgb(14,170,130)" d="M 600.638 1128.52 C 629.743 1143.86 664.164 1165.12 693.211 1181.85 L 890.772 1296 C 965.447 1248.86 1044.55 1201.35 1120.06 1155.31 C 1121.45 1180.99 1121.56 1209.67 1122.25 1235.62 C 1109.95 1242.98 1097.07 1250.2 1084.63 1257.39 L 925.462 1349.28 C 900.665 1363.62 853.835 1392.87 829.301 1401.31 C 779.009 1418.68 723.889 1415.42 675.99 1392.26 C 632.607 1371.28 599.492 1333.72 584.106 1288.05 C 565.447 1232.04 574.639 1179.95 600.638 1128.52 z"/>
<path transform="translate(0,0)" fill="rgb(14,170,130)" d="M 1282.66 635.446 C 1317.66 635.95 1347.05 641.846 1378.24 658.734 C 1420.67 681.326 1452.2 720.071 1465.7 766.207 C 1480.95 818.637 1472.91 871.793 1446.82 919.229 L 1157.03 751.7 L 1148.65 756.89 L 927.483 892.489 C 927.047 866.934 926.93 837.442 925.284 812.155 L 1116.77 701.63 L 1169.97 670.756 C 1211.24 646.821 1233.41 637.288 1282.66 635.446 z"/>
<path transform="translate(0,0)" fill="rgb(14,170,130)" d="M 1023.76 918.824 C 1053.74 936.594 1084.67 954.057 1114.89 971.521 L 1114.91 1076.15 L 1024.37 1128.48 C 1020.12 1127.14 1000.91 1115.64 995.68 1112.61 L 933.012 1076.13 L 932.951 971.449 L 1023.76 918.824 z"/>
</svg>