<svg version="1.1" xmlns="http://www.w3.org/2000/svg" style="display: block;" viewBox="0 0 1152 1152" width="288" height="288" preserveAspectRatio="none">
<defs>
	<linearGradient id="Gradient1" gradientUnits="userSpaceOnUse" x1="2.95049" y1="573.632" x2="381.713" y2="574.13">
		<stop class="stop0" offset="0" stop-opacity="1" stop-color="rgb(253,0,233)"/>
		<stop class="stop1" offset="1" stop-opacity="1" stop-color="rgb(145,16,232)"/>
	</linearGradient>
	<linearGradient id="Gradient2" gradientUnits="userSpaceOnUse" x1="368.03" y1="673.421" x2="548.583" y2="669.65">
		<stop class="stop0" offset="0" stop-opacity="1" stop-color="rgb(151,12,232)"/>
		<stop class="stop1" offset="1" stop-opacity="1" stop-color="rgb(82,67,243)"/>
	</linearGradient>
	<linearGradient id="Gradient3" gradientUnits="userSpaceOnUse" x1="578.331" y1="567.425" x2="1147" y2="581.172">
		<stop class="stop0" offset="0" stop-opacity="1" stop-color="rgb(38,93,250)"/>
		<stop class="stop1" offset="1" stop-opacity="1" stop-color="rgb(0,195,255)"/>
	</linearGradient>
</defs>
<path transform="translate(0,0)" fill="url(#Gradient3)" d="M 616.989 418.819 C 623.712 411.174 631.241 404.286 637.983 396.937 C 695.318 334.444 755.942 295.202 842.629 288.051 C 984.974 276.308 1114.81 375.327 1143.78 515.142 C 1146.41 527.634 1144.53 547.318 1152 557.715 L 1152 592.821 C 1150 596.855 1148.06 600.93 1148 605.57 C 1145.67 615.831 1145.08 626.09 1142.88 636.759 C 1111.58 788.658 961.021 887.479 809.368 856.792 C 809.217 856.757 809.066 856.721 808.915 856.686 C 800.025 855.562 786.59 851.292 778.041 848.59 C 726.021 832.149 679.918 799.036 644.112 758.081 L 644.002 754.546 C 648.916 744.715 738.774 654.06 748.543 648.255 C 750.662 646.996 752.911 645.718 755.344 646.669 C 760.949 648.859 766.679 655.887 770.984 660.023 C 782.834 671.406 800.895 688.497 817.258 692.459 C 817.487 692.514 817.72 692.558 817.951 692.607 C 838.03 700.741 854.33 703.774 875.987 701.741 C 909.202 698.3 939.762 682.031 961.162 656.396 C 980.265 633.207 994.238 591.836 990.396 561.664 C 981.183 489.309 922.242 441.447 849.292 448.513 C 802.085 456.639 782.79 476.978 750.676 509.689 L 709.346 552.093 C 679.551 582.676 649.577 613.083 619.425 643.314 L 618.801 643.661 C 611.764 650.923 562.48 702.223 558.116 704.165 C 551.93 712.489 532.736 730.542 524.632 738.858 C 488.633 775.799 453.625 813.514 405.765 835.272 C 399.313 838.205 388.019 844.055 381.346 845.694 C 374.742 840.913 379.732 830.43 379.394 826.198 C 378.746 818.06 381.539 811.66 381.526 804.505 C 381.477 777.774 378.986 751.398 379.498 724.651 C 379.642 716.532 377.592 708.084 377.381 700.106 C 377.225 694.189 379.646 687.78 379.461 681.774 C 378.984 670.011 372.854 677.125 368.641 672.991 L 370.707 667.915 C 381.682 654.18 402.166 636.444 415.557 622.703 L 537.847 498.449 L 588.897 446.609 C 596.593 438.822 609.008 425.523 616.989 418.819 z"/>
<path transform="translate(0,0)" fill="url(#Gradient2)" d="M 370.707 667.915 C 381.682 654.18 402.166 636.444 415.557 622.703 L 537.847 498.449 C 540.623 500.049 542.965 501.044 544.597 503.827 C 546.386 513.043 543.994 522.038 544.54 530.99 C 545.642 539.035 547.454 544.922 547.525 553.151 C 547.731 576.629 545.303 602.192 546.5 625.533 C 547.684 648.648 541.67 689.208 550.58 709.646 C 553.686 706.589 554.185 706.073 558.116 704.165 C 551.93 712.489 532.736 730.542 524.632 738.858 C 488.633 775.799 453.625 813.514 405.765 835.272 C 399.313 838.205 388.019 844.055 381.346 845.694 C 374.742 840.913 379.732 830.43 379.394 826.198 C 378.746 818.06 381.539 811.66 381.526 804.505 C 381.477 777.774 378.986 751.398 379.498 724.651 C 379.642 716.532 377.592 708.084 377.381 700.106 C 377.225 694.189 379.646 687.78 379.461 681.774 C 378.984 670.011 372.854 677.125 368.641 672.991 L 370.707 667.915 z"/>
<path transform="translate(0,0)" fill="rgb(113,50,238)" d="M 537.847 498.449 L 588.897 446.609 C 596.593 438.822 609.008 425.523 616.989 418.819 C 617.504 424.34 597.033 441.013 592.207 446.468 C 588.752 450.374 585.056 452.755 581.828 457.661 L 582.344 457.683 C 584.584 457.796 584.773 457.853 586.876 458.557 C 587.465 461.929 586.629 473.616 586.788 478.279 C 588.762 536.141 582.63 594.17 586.93 652.039 C 587.112 654.479 591.273 663.963 592.409 666.707 L 593.194 667.154 C 595.966 663.611 597.401 661.934 601.08 659.32 C 608.289 654.199 609.711 645.999 618.801 643.661 C 611.764 650.923 562.48 702.223 558.116 704.165 C 554.185 706.073 553.686 706.589 550.58 709.646 C 541.67 689.208 547.684 648.648 546.5 625.533 C 545.303 602.192 547.731 576.629 547.525 553.151 C 547.454 544.922 545.642 539.035 544.54 530.99 C 543.994 522.038 546.386 513.043 544.597 503.827 C 542.965 501.044 540.623 500.049 537.847 498.449 z"/>
<path transform="translate(0,0)" fill="url(#Gradient1)" d="M 0 532.866 C 4.18041 527.553 10.4443 493.219 13.6238 483.217 C 62.5102 329.426 241.306 242.502 394.217 309.511 C 429.434 323.004 457.703 345.182 485.049 370.509 C 515.164 398.402 505.561 397.047 480.35 422.447 L 429.404 474.141 C 422.576 481.089 409.533 493.616 403.846 500.48 L 403.205 501.092 C 400.803 503.347 400.26 503.821 396.847 504.199 C 391.344 503.224 366.929 478.589 359.666 473.056 C 286.698 417.465 178.481 458.631 162.189 549.154 C 155.738 584.998 161.665 618.769 182.956 649.044 C 201.992 676.653 231.454 695.314 264.55 700.724 C 294.174 705.738 329.893 697.922 354.281 680.433 C 359.691 676.553 365.433 672.028 370.707 667.915 L 368.641 672.991 C 372.854 677.125 378.984 670.011 379.461 681.774 C 379.646 687.78 377.225 694.189 377.381 700.106 C 377.592 708.084 379.642 716.532 379.498 724.651 C 378.986 751.398 381.477 777.774 381.526 804.505 C 381.539 811.66 378.746 818.06 379.394 826.198 C 379.732 830.43 374.742 840.913 381.346 845.694 C 370.701 848.507 360.282 852.412 349.547 854.917 C 199.153 890.013 48.5227 798.331 8.92838 649.338 C 6.83505 641.461 4.45838 627.097 0 620.638 L 0 532.866 z"/>
<path transform="translate(0,0)" fill="rgb(113,50,238)" d="M 403.846 500.48 C 401.927 500.633 397.695 501.761 395.641 502.246 C 389.645 497.449 382.26 489.42 376.731 483.731 C 375.564 478.565 380.163 471.62 380.043 466.348 C 379.892 459.707 379.617 453.702 379.781 447.014 C 379.471 427.367 382.377 406.88 381.881 387.36 C 381.542 374.001 380.46 368.892 382.783 354.903 C 383.678 349.515 377.069 309.323 379.404 305.616 L 392.663 310.934 L 394.217 309.511 C 429.434 323.004 457.703 345.182 485.049 370.509 C 515.164 398.402 505.561 397.047 480.35 422.447 L 429.404 474.141 C 422.576 481.089 409.533 493.616 403.846 500.48 z"/>
</svg>