<svg xmlns="http://www.w3.org/2000/svg" xmlns:xlink="http://www.w3.org/1999/xlink" version="1.1" width="256" height="256" viewBox="0 0 256 256" xml:space="preserve">
<g style="stroke: none; stroke-width: 0; stroke-dasharray: none; stroke-linecap: butt; stroke-linejoin: miter; stroke-miterlimit: 10; fill: none; fill-rule: nonzero; opacity: 1;" transform="translate(1.4065934065934016 1.4065934065934016) scale(2.81 2.81)">
	<circle cx="45" cy="45" r="45" style="stroke: none; stroke-width: 1; stroke-dasharray: none; stroke-linecap: butt; stroke-linejoin: miter; stroke-miterlimit: 10; fill: rgb(90,170,231); fill-rule: nonzero; opacity: 1;" transform="  matrix(1 0 0 1 0 0) "/>
	<path d="M 42.006 13.188 c 3.251 -3.607 5.286 -8.268 5.815 -13.091 C 46.887 0.039 45.948 0 45 0 C 25.833 0 9.475 11.989 2.989 28.872 c -0.164 4.252 -0.102 8.421 1.882 12.097 c 2.332 4.32 6.829 6.944 11.095 9.374 c 2.025 1.154 4.156 2.423 5.219 4.497 c 0.711 1.386 0.862 2.985 1.37 4.458 c 2.039 5.901 9.375 8.86 11.008 14.885 c 1.014 3.741 -0.463 7.635 -1.259 11.428 c -0.17 0.809 -0.297 1.626 -0.405 2.446 C 36.046 89.317 40.443 90 45 90 c 0.792 0 1.58 -0.022 2.362 -0.062 c 0.753 -1.317 1.298 -2.799 1.938 -4.183 c 1.257 -2.718 3.019 -5.201 5.169 -7.286 c 3.014 -2.922 6.769 -5.059 9.473 -8.269 c 1.614 -1.916 2.848 -4.41 2.361 -6.868 c -0.676 -3.406 -4.295 -5.36 -7.668 -6.182 c -3.373 -0.822 -7.037 -1.056 -9.88 -3.05 c -1.933 -1.356 -3.287 -4.428 -5.186 -5.833 c -6.453 -4.772 -18.602 0.407 -25.142 -4.246 c -0.824 -0.586 -1.578 -1.324 -1.97 -2.257 c -0.326 -0.775 -0.385 -1.636 -0.37 -2.477 c 0.08 -4.484 4.277 -8.889 7.763 -11.71 c 0.252 -0.204 0.515 -0.402 0.819 -0.513 c 1.078 -0.394 2.232 0.434 2.874 1.384 s 0.021 5.158 0.88 5.919 c 0.859 0.76 2.459 0.873 2.973 -0.154 c 0.238 -0.475 1.191 -4.107 1.141 -4.636 c -0.228 -2.412 0.098 -4.903 1.15 -7.085 C 35.506 18.727 39.205 16.294 42.006 13.188 z" style="stroke: none; stroke-width: 1; stroke-dasharray: none; stroke-linecap: butt; stroke-linejoin: miter; stroke-miterlimit: 10; fill: rgb(145,220,90); fill-rule: nonzero; opacity: 1;" transform=" matrix(1 0 0 1 0 0) " stroke-linecap="round"/>
	<path d="M 81.712 10.266 c -2.342 2.697 -7.493 8.631 -9.985 11.501 c -0.877 1.01 -2.204 1.507 -3.529 1.323 l -22.204 -3.081 c -0.572 -0.079 -1.145 0.136 -1.524 0.572 l -1.523 1.755 c -0.788 0.908 -0.416 2.325 0.717 2.728 l 16.69 5.938 c 1.232 0.438 1.637 1.979 0.78 2.967 l -4.075 4.694 c -0.498 0.574 -1.273 0.827 -2.014 0.657 l -4.325 -0.991 c -0.447 -0.102 -0.914 0.05 -1.214 0.396 l -1.571 1.81 c -0.564 0.65 -0.312 1.662 0.491 1.972 l 7.516 2.898 l 0.033 -0.038 l 3.925 7.035 c 0.419 0.751 1.457 0.859 2.021 0.209 l 1.571 -1.81 c 0.301 -0.346 0.386 -0.83 0.222 -1.258 l -1.589 -4.143 c -0.272 -0.71 -0.131 -1.512 0.368 -2.086 l 4.042 -4.656 c 0.857 -0.988 2.44 -0.803 3.047 0.355 l 8.223 15.691 c 0.558 1.065 2.013 1.235 2.802 0.327 l 1.523 -1.755 c 0.379 -0.436 0.511 -1.034 0.352 -1.589 l -6.168 -21.551 c -0.368 -1.286 -0.061 -2.672 0.816 -3.682 l 10.062 -11.59 c 1.346 -1.551 1.12 -3.931 -0.541 -5.194 C 85.134 8.516 82.96 8.827 81.712 10.266 z" style="stroke: none; stroke-width: 1; stroke-dasharray: none; stroke-linecap: butt; stroke-linejoin: miter; stroke-miterlimit: 10; fill: rgb(48,113,153); fill-rule: nonzero; opacity: 1;" transform=" matrix(1 0 0 1 0 0) " stroke-linecap="round"/>
	<path d="M 11.996 65.891 c -0.376 0.002 -0.739 -0.003 -1.11 -0.009 c -0.552 -0.01 -0.993 -0.465 -0.983 -1.017 c 0.009 -0.547 0.455 -0.983 1 -0.983 c 0.006 0 0.012 0 0.017 0 c 0.361 0.007 0.726 0.009 1.077 0.009 c 1.195 0 2.402 -0.037 3.589 -0.111 c 0.546 -0.024 1.026 0.385 1.06 0.936 c 0.034 0.552 -0.385 1.026 -0.936 1.061 C 14.481 65.852 13.232 65.891 11.996 65.891 z M 20.614 65.252 c -0.486 0 -0.913 -0.355 -0.987 -0.852 c -0.082 -0.546 0.294 -1.056 0.84 -1.138 c 1.614 -0.242 3.235 -0.56 4.816 -0.943 c 0.535 -0.133 1.077 0.198 1.208 0.735 s -0.199 1.078 -0.736 1.208 c -1.639 0.397 -3.318 0.727 -4.991 0.979 C 20.714 65.248 20.664 65.252 20.614 65.252 z M 30.317 62.896 c -0.417 0 -0.806 -0.262 -0.947 -0.679 c -0.178 -0.522 0.102 -1.091 0.625 -1.269 c 1.539 -0.522 3.079 -1.121 4.578 -1.779 c 0.507 -0.222 1.096 0.007 1.318 0.513 c 0.222 0.506 -0.008 1.096 -0.513 1.317 c -1.552 0.683 -3.146 1.303 -4.739 1.844 C 30.532 62.88 30.424 62.896 30.317 62.896 z M 39.464 58.882 c -0.355 0 -0.698 -0.189 -0.88 -0.522 c -0.264 -0.485 -0.083 -1.093 0.401 -1.356 c 1.416 -0.769 2.838 -1.615 4.228 -2.517 c 0.462 -0.302 1.082 -0.17 1.383 0.295 c 0.301 0.463 0.168 1.082 -0.295 1.383 c -1.433 0.93 -2.9 1.803 -4.361 2.597 C 39.789 58.843 39.625 58.882 39.464 58.882 z M 47.85 53.454 c -0.303 0 -0.602 -0.137 -0.799 -0.396 c -0.333 -0.44 -0.246 -1.067 0.194 -1.401 c 1.285 -0.973 2.575 -2.018 3.832 -3.105 c 0.415 -0.361 1.049 -0.317 1.41 0.102 c 0.361 0.417 0.316 1.049 -0.102 1.41 c -1.29 1.117 -2.613 2.189 -3.934 3.189 C 48.271 53.388 48.06 53.454 47.85 53.454 z" style="stroke: none; stroke-width: 1; stroke-dasharray: none; stroke-linecap: butt; stroke-linejoin: miter; stroke-miterlimit: 10; fill: rgb(48,113,153); fill-rule: nonzero; opacity: 1;" transform=" matrix(1 0 0 1 0 0) " stroke-linecap="round"/>
</g>
</svg>