<svg xmlns="http://www.w3.org/2000/svg" xmlns:xlink="http://www.w3.org/1999/xlink" version="1.1" width="256" height="256" viewBox="0 0 256 256" xml:space="preserve">
<g style="stroke: none; stroke-width: 0; stroke-dasharray: none; stroke-linecap: butt; stroke-linejoin: miter; stroke-miterlimit: 10; fill: none; fill-rule: nonzero; opacity: 1;" transform="translate(1.4065934065934016 1.4065934065934016) scale(2.81 2.81)">
	<path d="M 68.54 83.332 C 61.698 87.56 53.633 90 44.999 90 c -9.196 0 -17.746 -2.768 -24.861 -7.516 L 2.407 59.238 c -1.056 -3.194 -1.762 -6.546 -2.074 -10.012 L 22.765 6.242 c 5.755 -3.321 12.303 -5.398 19.273 -5.845 c 17.927 -1.151 33.774 8.237 41.947 22.568 L 68.54 83.332 z" style="stroke: none; stroke-width: 1; stroke-dasharray: none; stroke-linecap: butt; stroke-linejoin: miter; stroke-miterlimit: 10; fill: rgb(90,170,231); fill-rule: nonzero; opacity: 1;" transform=" matrix(1 0 0 1 0 0) " stroke-linecap="round"/>
	<path d="M 66.056 5.563 c -0.375 2.998 -2.932 5.319 -6.032 5.319 h -10.19 c -3.359 0 -6.081 2.723 -6.081 6.081 v 2.63 c 0 3.359 2.723 6.081 6.081 6.081 h 11.271 c 3.358 0 6.081 2.723 6.081 6.081 s -2.723 6.081 -6.081 6.081 H 47.204 c -3.358 0 -6.081 2.723 -6.081 6.081 v 3.791 c 0 6.529 5.293 11.822 11.822 11.822 h 3.118 c 6.887 0 12.47 5.583 12.47 12.47 v 0.021 v 11.299 c 3.775 -2.332 7.185 -5.198 10.107 -8.509 c 6.976 -7.906 11.208 -18.289 11.208 -29.661 c 0 -8.07 -2.132 -15.643 -5.863 -22.185 C 79.785 15.601 73.549 9.558 66.056 5.563 z" style="stroke: none; stroke-width: 1; stroke-dasharray: none; stroke-linecap: butt; stroke-linejoin: miter; stroke-miterlimit: 10; fill: rgb(145,220,90); fill-rule: nonzero; opacity: 1;" transform=" matrix(1 0 0 1 0 0) " stroke-linecap="round"/>
	<path d="M 20.14 77.313 c 0 -2.36 1.913 -4.273 4.273 -4.273 c 2.36 0 4.273 -1.913 4.273 -4.273 v -5.259 c 0 -2.36 -1.913 -4.273 -4.273 -4.273 H 2.419 c 2.236 6.763 6.026 12.818 10.964 17.726 c 2.064 2.051 4.328 3.9 6.757 5.521 V 77.313 z" style="stroke: none; stroke-width: 1; stroke-dasharray: none; stroke-linecap: butt; stroke-linejoin: miter; stroke-miterlimit: 10; fill: rgb(145,220,90); fill-rule: nonzero; opacity: 1;" transform=" matrix(1 0 0 1 0 0) " stroke-linecap="round"/>
	<path d="M 17.674 28.516 c 2.814 0 5.095 -2.281 5.095 -5.095 V 6.249 C 9.686 13.798 0.697 27.768 0.175 43.637 c -0.062 1.891 0.006 3.753 0.171 5.587 h 7.138 c 2.814 0 5.095 -2.281 5.095 -5.095 V 33.611 C 12.579 30.797 14.86 28.516 17.674 28.516 z" style="stroke: none; stroke-width: 1; stroke-dasharray: none; stroke-linecap: butt; stroke-linejoin: miter; stroke-miterlimit: 10; fill: rgb(145,220,90); fill-rule: nonzero; opacity: 1;" transform=" matrix(1 0 0 1 0 0) " stroke-linecap="round"/>
	<path d="M 74.927 0 c 8.241 0 14.921 6.68 14.921 14.921 c 0 2.34 -0.539 4.554 -1.499 6.526 l -0.001 0 c -1.807 3.627 -7.982 13.97 -13.421 23.182 c -5.439 -9.212 -11.614 -19.555 -13.421 -23.182 l -0.001 0 c -0.96 -1.971 -1.499 -4.185 -1.499 -6.526 C 60.006 6.68 66.687 0 74.927 0 z" style="stroke: none; stroke-width: 1; stroke-dasharray: none; stroke-linecap: butt; stroke-linejoin: miter; stroke-miterlimit: 10; fill: rgb(226,96,96); fill-rule: nonzero; opacity: 1;" transform=" matrix(1 0 0 1 0 0) " stroke-linecap="round"/>
	<circle cx="74.92699999999999" cy="14.317" r="6.187" style="stroke: none; stroke-width: 1; stroke-dasharray: none; stroke-linecap: butt; stroke-linejoin: miter; stroke-miterlimit: 10; fill: rgb(255,255,255); fill-rule: nonzero; opacity: 1;" transform="  matrix(1 0 0 1 0 0) "/>
</g>
</svg>