<svg version="1.1" xmlns="http://www.w3.org/2000/svg" style="display: block;" viewBox="0 0 1192 1192" width="298" height="298" preserveAspectRatio="none">
<path transform="translate(0,0)" fill="rgb(48,110,255)" d="M 1152.54 309.071 C 1143.65 306.653 1127.24 305.089 1117.41 303.879 C 1095.77 301.35 1074.15 298.685 1052.55 295.884 L 779.159 261.105 C 763.644 259.065 748.109 257.18 732.556 255.451 C 709.462 252.867 680.798 253.434 668.979 229.615 C 661.214 213.964 656.32 197.046 649.944 180.799 C 642.106 160.784 633.535 140.849 626.723 120.461 C 623.445 110.65 626.005 97.9666 639.086 100.216 C 671.216 103.882 703.27 107.961 735.355 111.98 L 898.988 132.4 L 1027.76 148.502 C 1052.63 151.662 1086.28 153.156 1109.72 162.99 C 1133.83 173.101 1145.82 212.524 1155.58 234.504 C 1164.3 258.924 1185.16 296.588 1188.45 321.183 C 1190.65 337.64 1188.54 376.236 1188.56 394.627 L 1188.61 562.619 L 1188.61 829.875 L 1188.69 915.073 C 1188.74 949.663 1191.27 983.645 1178.04 1016.2 C 1157.21 1067.46 1107.91 1096.35 1053.65 1097.6 C 1034.59 1098.03 1015.38 1097.93 996.173 1097.91 L 896.382 1097.83 L 584.292 1097.81 L 287.484 1097.82 L 192.114 1097.9 C 157.484 1097.93 116.689 1100.38 84.4485 1086.75 C 51.6689 1072.89 25.86 1046.4 12.8559 1013.27 C 7.55419 1000.03 4.90541 988.344 4.2825 974.14 C 2.66205 937.189 3.41842 899.722 3.42657 862.679 L 3.42892 672.109 L 3.41846 438.85 C 3.41535 401.09 3.39655 363.068 3.36033 325.286 C 3.3568 321.598 4.15364 319.255 5.58731 315.895 C 12.6965 316.054 31.2404 313.964 40.9121 313.779 C 60.4079 315.146 86.7416 314.207 106.704 314.165 L 217.496 314.264 L 580.951 314.297 L 960.158 314.271 L 1084.61 314.159 C 1103.26 314.157 1132.2 315.077 1150.15 313.958 C 1159.64 313.873 1170.02 314.558 1179.57 315.008 C 1169.13 311.607 1163.57 310.902 1152.54 309.071 z M 727.946 934.756 C 781.054 920.901 758.266 853.879 710.289 871.854 C 646.537 895.74 579.711 901.33 513.639 882.983 C 500.739 879.401 471.914 868.634 461.702 868.345 C 429.532 873.778 418.965 909.123 444.902 928.18 C 453.619 934.586 477.896 941.473 488.866 944.472 C 544.429 959.659 601.99 966.124 658.887 954.286 C 676.823 950.601 712.03 942.334 727.946 934.756 z M 807.778 728.293 C 824.937 726.917 835.021 721.871 846.87 708.996 C 858.181 696.705 858.536 683.403 858.357 667.536 C 857.968 632.987 859.091 598.077 857.871 563.579 C 856.972 538.169 831.17 519.269 806.719 518.395 C 789.822 520.075 777.703 524.55 766.485 538.297 C 761.26 544.646 757.738 552.222 756.253 560.31 C 752.787 578.395 754.859 612.418 754.83 631.812 C 754.787 660.763 748.918 698.419 774.553 717.586 C 784.506 725.196 795.444 728.169 807.778 728.293 z M 385.369 728.317 C 409.671 726.686 430.891 712.793 435.444 687.063 C 439.42 664.593 436.039 639.802 436.995 616.984 C 437.136 600.635 437.707 583.326 436.821 567.088 C 435.287 538.964 412.73 519.741 385.666 518.379 C 368.951 520.245 356.395 523.872 345.117 537.774 C 339.861 544.188 336.301 551.82 334.764 559.969 C 332.946 569.662 333.25 583.952 333.667 593.99 C 334.892 623.498 332.527 653.775 333.926 683.133 C 335.139 708.583 360.383 728.201 385.369 728.317 z"/>
<path transform="translate(0,0)" fill="rgb(48,110,255)" d="M 6.30473 313.082 C 15.6713 283.376 29.9988 253.896 41.3352 224.948 C 51.6894 198.846 64.9444 164.446 96.0483 157.829 C 116.916 153.389 141.394 151.303 162.871 148.637 L 283.189 133.648 L 453.998 112.357 C 486.666 108.224 519.748 102.915 552.573 100.397 C 556.649 100.084 560.37 99.9566 563.91 102.411 C 566.153 103.966 568.08 106.283 568.34 109.022 C 569.515 121.402 527.153 226.123 518.692 237.077 C 513.125 244.283 505.526 248.264 496.799 250.412 C 480.536 254.414 462.646 255.303 445.971 257.347 L 353.361 268.897 L 51.2993 307.377 C 42.2229 307.554 19.8126 312.195 6.30473 313.082 z"/>
<path transform="translate(0,0)" fill="rgb(48,110,255)" fill-opacity="0.0431373" d="M 51.2993 307.377 C 48.9523 311.096 47.1363 310.975 42.0708 312.135 C 41.5206 312.261 40.9694 312.383 40.4172 312.5 L 40.9121 313.779 C 31.2404 313.964 12.6965 316.054 5.58731 315.895 L 6.30473 313.082 C 19.8126 312.195 42.2229 307.554 51.2993 307.377 z"/>
<path transform="translate(0,0)" fill="rgb(48,110,255)" fill-opacity="0.0235294" d="M 1152.54 309.071 C 1163.57 310.902 1169.13 311.607 1179.57 315.008 C 1170.02 314.558 1159.64 313.873 1150.15 313.958 L 1151.24 312.896 L 1150.81 311.938 L 1147.21 311.302 L 1148.16 310.478 L 1147.17 311.039 L 1149.96 310.8 L 1150.62 309.381 L 1152.54 309.071 z"/>
</svg>