<svg version="1.1" xmlns="http://www.w3.org/2000/svg" style="display: block;" viewBox="0 0 2048 2048" width="982" height="982" preserveAspectRatio="none">
<path transform="translate(0,0)" fill="rgb(0,0,0)" d="M 979.321 0 L 1032.14 0 L 1067.71 0 C 1085.41 2.42188 1104.37 2.41736 1122.49 4.20105 C 1158.51 7.8547 1194.32 13.3855 1229.76 20.7709 C 1474.79 70.9448 1692.98 209.076 1843.14 409.094 C 1943.32 542.533 2009.42 698.405 2035.71 863.181 C 2039.87 889.056 2042.93 915.098 2044.86 941.235 C 2045.68 951.903 2046.29 974.622 2048 984.098 L 2048 1064.82 L 2047.84 1065.8 C 2045.54 1081.1 2045.35 1105.18 2043.78 1121.94 C 2040.13 1158.79 2034.56 1195.44 2027.09 1231.71 C 1976.43 1476.78 1837.66 1694.76 1637.07 1844.38 C 1511.99 1937.8 1367.23 2001.41 1213.82 2030.35 C 1184.98 2035.78 1155.96 2040.14 1126.8 2043.4 C 1113.16 2044.8 1086.19 2045.52 1074.67 2048 L 1032.09 2048 L 978.077 2048 C 960.112 2044.85 939.515 2045.31 921.408 2043.24 C 892.658 2039.95 864.516 2035.43 836.056 2030.35 C 680.377 2001.22 533.556 1936.44 407.09 1841.1 C 206.852 1690 69.082 1470.63 19.9486 1224.64 C 13.403 1191.68 8.43535 1158.43 5.06257 1124.99 C 3.11108 1105.12 2.64729 1084.28 0 1064.62 L 0 984.218 C 2.52362 970.088 2.70133 946.718 4.22954 931.793 C 6.61119 908.532 9.12751 885.621 12.9888 862.511 C 39.4769 696.625 106.342 539.795 207.696 405.828 C 358.673 206.528 577.369 69.3738 822.523 20.2422 C 855.51 13.4514 888.819 8.33218 922.323 4.90416 C 940.149 3.09452 960.798 2.59524 978.089 0.180172 L 979.321 0 z"/>
<path transform="translate(0,0)" fill="rgb(254,164,1)" d="M 1032.14 0 L 1067.71 0 C 1085.41 2.42188 1104.37 2.41736 1122.49 4.20105 C 1158.51 7.8547 1194.32 13.3855 1229.76 20.7709 C 1474.79 70.9448 1692.98 209.076 1843.14 409.094 C 1943.32 542.533 2009.42 698.405 2035.71 863.181 C 2039.87 889.056 2042.93 915.098 2044.86 941.235 C 2045.68 951.903 2046.29 974.622 2048 984.098 L 2048 1064.82 L 2047.84 1065.8 C 2045.54 1081.1 2045.35 1105.18 2043.78 1121.94 C 2040.13 1158.79 2034.56 1195.44 2027.09 1231.71 C 1976.43 1476.78 1837.66 1694.76 1637.07 1844.38 C 1511.99 1937.8 1367.23 2001.41 1213.82 2030.35 C 1184.98 2035.78 1155.96 2040.14 1126.8 2043.4 C 1113.16 2044.8 1086.19 2045.52 1074.67 2048 L 1032.09 2048 L 1032.14 0 z"/>
<path transform="translate(0,0)" fill="rgb(0,0,0)" d="M 1632.72 606.309 L 1810.9 606.516 L 1810.93 1403.34 L 1791 1403.38 L 1632.68 1403.51 L 1632.89 1074.92 C 1525.93 1073.76 1416.92 1074.83 1309.85 1074.84 L 1309.88 1403.46 L 1130.01 1403.47 L 1130.15 606.343 L 1309.82 606.507 L 1309.71 915.858 L 1632.71 915.86 L 1632.72 606.309 z"/>
<path transform="translate(0,0)" fill="rgb(254,254,254)" d="M 311.955 609.243 C 384 608.483 456.666 609.112 528.724 609.145 C 602.164 610.258 673.936 604.403 746.198 619.909 C 863.502 645.08 932.028 731.841 935.903 850.683 C 938.643 924.283 925.036 998.843 872.996 1054.65 C 817.807 1113.84 745.751 1133.4 668.239 1136.67 L 502.76 1136.75 L 502.829 1405.26 L 311.897 1405.18 L 311.955 609.243 z"/>
<path transform="translate(0,0)" fill="rgb(0,0,0)" d="M 502.79 754.997 L 586.386 754.912 C 634.792 754.893 684.754 749.751 723.802 785.192 C 745.918 805.265 753.267 835.192 753.65 864.066 C 754.176 903.665 749.507 931.619 722.229 960.796 C 684.256 997.444 634.414 992.895 585.786 992.836 L 502.803 992.814 C 501.575 915.152 502.779 832.958 502.79 754.997 z"/>
</svg>