<svg version="1.1" xmlns="http://www.w3.org/2000/svg" style="display: block;" viewBox="0 0 2048 2048" width="1024" height="1024" preserveAspectRatio="none">
<path transform="translate(0,0)" fill="rgb(0,0,0)" d="M 979.27 0 L 1026.84 0 L 1067.94 0 L 1069.13 0.174189 C 1085.9 2.5106 1107.07 3.09425 1124.44 4.82657 C 1159.25 8.50075 1193.88 13.7594 1228.21 20.5862 C 1472.93 70.1591 1691.04 207.593 1841.37 406.951 C 1939.92 537.326 2005.79 689.425 2033.45 850.501 C 2038.34 878.884 2041.54 905.83 2044.41 934.418 C 2045.52 945.424 2046.13 977.745 2048 986.132 L 2048 1061.77 L 2047.84 1062.92 C 2045.81 1078.76 2045.72 1099.49 2044.19 1116.19 C 2040.56 1154.21 2034.99 1192.01 2027.51 1229.46 C 1978.77 1466.44 1847.68 1678.5 1657.49 1828.04 C 1519.06 1937.16 1354.9 2008.86 1180.77 2036.25 C 1154.86 2040.36 1128.78 2043.25 1102.6 2044.92 C 1091.14 2045.71 1068.98 2046.29 1058.89 2048 L 1026.77 2048 L 993.506 2048 C 978.964 2044.9 953.117 2045.52 937.342 2044.23 C 748.712 2028.82 560.785 1957.46 409.772 1843.16 C 208.418 1692.12 69.7 1472.25 20.0701 1225.49 C 13.2717 1191.27 8.17857 1156.73 4.80951 1122 C 3.18978 1103.93 2.63986 1080.21 0.14729 1062.9 L 0 1061.93 L 0 986.067 C 2.01209 974.898 2.48984 953.32 3.61995 940.878 C 5.84951 916.333 8.03146 892.08 12.0604 867.708 C 37.6375 702.886 102.991 546.779 202.467 412.895 C 352.805 210.831 572.288 71.2034 819.021 20.6637 C 853.906 13.6501 889.119 8.38307 924.529 4.88221 C 942.22 3.10186 961.985 2.52919 979.27 0 z"/>
<path transform="translate(0,0)" fill="rgb(254,143,0)" d="M 1026.84 0 L 1067.94 0 L 1069.13 0.174189 C 1085.9 2.5106 1107.07 3.09425 1124.44 4.82657 C 1159.25 8.50075 1193.88 13.7594 1228.21 20.5862 C 1472.93 70.1591 1691.04 207.593 1841.37 406.951 C 1939.92 537.326 2005.79 689.425 2033.45 850.501 C 2038.34 878.884 2041.54 905.83 2044.41 934.418 C 2045.52 945.424 2046.13 977.745 2048 986.132 L 2048 1061.77 L 2047.84 1062.92 C 2045.81 1078.76 2045.72 1099.49 2044.19 1116.19 C 2040.56 1154.21 2034.99 1192.01 2027.51 1229.46 C 1978.77 1466.44 1847.68 1678.5 1657.49 1828.04 C 1519.06 1937.16 1354.9 2008.86 1180.77 2036.25 C 1154.86 2040.36 1128.78 2043.25 1102.6 2044.92 C 1091.14 2045.71 1068.98 2046.29 1058.89 2048 L 1026.77 2048 L 1026.84 0 z"/>
<path transform="translate(0,0)" fill="rgb(0,0,0)" d="M 1555.89 623.147 C 1594.42 622.282 1632.96 621.997 1671.5 622.29 C 1688.31 622.341 1730.55 623.777 1745.06 621.052 C 1746.12 634.007 1745.75 649.667 1745.76 662.846 L 1745.75 727.977 L 1745.73 935.279 L 1745.72 1233.39 C 1745.73 1283.04 1747.29 1343.29 1745.35 1392.13 C 1682.93 1392.81 1618.31 1392.58 1555.88 1392.13 C 1553.94 1360.37 1555.33 1315.39 1555.36 1282.96 L 1555.48 1085.09 C 1528.07 1086.44 1499.45 1086.14 1471.92 1086.22 L 1337.52 1086.27 C 1315.57 1086.3 1293.41 1086.02 1271.44 1085.76 C 1267.91 1085.72 1266.32 1086.04 1263.94 1088 C 1262.55 1096.52 1263.34 1135.74 1263.34 1146.89 L 1263.4 1297.19 C 1263.4 1309.21 1264.27 1357.14 1262.83 1367.39 C 1262.29 1372.51 1262.93 1386.48 1263.05 1392.24 C 1205.78 1393.2 1138.18 1393.24 1081.11 1391.9 C 1082.52 1362.27 1081.95 1329.13 1081.96 1299.26 L 1081.99 1146.21 L 1082.84 622.918 C 1090.54 622.974 1098.32 622.683 1106.03 622.543 C 1157.96 621.598 1210.15 623.219 1262.07 621.912 L 1262.93 924.114 C 1295.26 925.032 1331.89 924.266 1364.44 924.251 L 1555.4 923.95 C 1557.18 825.17 1555.7 722.33 1555.89 623.147 z"/>
<path transform="translate(0,0)" fill="rgb(224,120,0)" d="M 1262.09 1076.68 C 1329.64 1074.99 1402.16 1076.21 1470.04 1076.21 L 1526.62 1076.23 C 1532.47 1076.24 1548.93 1075.86 1554.05 1076.93 C 1555.99 1079.92 1555.31 1080.87 1555.48 1085.09 C 1528.07 1086.44 1499.45 1086.14 1471.92 1086.22 L 1337.52 1086.27 C 1315.57 1086.3 1293.41 1086.02 1271.44 1085.76 C 1267.91 1085.72 1266.32 1086.04 1263.94 1088 C 1262.55 1096.52 1263.34 1135.74 1263.34 1146.89 L 1263.4 1297.19 C 1263.4 1309.21 1264.27 1357.14 1262.83 1367.39 C 1261.98 1358.08 1262.34 1342.61 1262.33 1332.95 L 1262.32 1274.65 L 1262.09 1076.68 z"/>
<path transform="translate(0,0)" fill="rgb(254,254,254)" d="M 346.175 628.236 C 418.207 627.392 491.555 628.049 563.671 628.043 L 645.113 628.043 C 691.363 628.049 721.154 627.047 767.115 637.679 C 808.198 646.767 846.438 665.754 878.509 692.991 C 928.459 735.648 959.203 796.565 963.848 862.087 C 969.2 930.683 951.902 998.922 905.935 1050.58 C 850.914 1112.42 792.003 1130.02 713.25 1135.95 C 654.736 1137.16 593.894 1136.03 535.057 1136.28 L 534.941 1387.6 C 514.263 1388.37 490.076 1387.79 469.183 1387.79 L 346.103 1387.79 L 346.175 628.236 z"/>
<path transform="translate(0,0)" fill="rgb(0,0,0)" d="M 535.122 765.053 C 578.512 765.024 658.374 762.823 697.511 776.169 C 709.872 780.26 721.204 786.972 730.731 795.847 C 773.376 835.717 775.061 935.319 735.636 977.089 C 706.057 1005.65 653.959 1004.13 615.571 1004.61 C 588.725 1004.88 561.877 1004.95 535.029 1004.81 L 535.122 765.053 z"/>
</svg>