<svg version="1.1" xmlns="http://www.w3.org/2000/svg" style="display: block;" viewBox="0 0 1024 1024" width="256" height="256" preserveAspectRatio="none">
<path transform="translate(0,0)" fill="rgb(255,146,0)" d="M 468.223 0 L 554.777 0 L 555.619 0.27815 C 563.232 2.70933 589.08 5.11008 599.088 6.99574 C 621.863 11.2869 642.783 16.3423 665.094 22.8153 C 687.503 29.3166 705.782 37.4272 726.766 46.7804 C 831.039 93.2596 915.699 177.36 968.218 278.235 C 988.991 318.134 1007.35 369.109 1015.3 413.647 C 1017.18 424.171 1018.47 435.844 1020.31 446.423 C 1021.63 453.989 1021.1 473.521 1024 479.374 L 1024 549.592 C 1020.98 557.118 1020.38 579.42 1019.06 588.495 C 986.416 812.224 802.018 993.292 577.127 1020.22 C 568.372 1021.27 555.993 1021.39 547.878 1024 L 477.344 1024 C 472.515 1021.92 428.351 1017.36 418.277 1015.46 C 358.978 1004.2 302.031 982.918 249.875 952.538 C 134.908 883.443 51.2114 772.462 16.3836 642.931 C 10.7319 622.152 7.32517 606.135 4.83706 584.855 C 3.92252 577.033 1.98807 555.129 0.262651 548.808 L 0 547.878 L 0 477.465 C 1.89998 471.19 2.56349 459.135 3.28002 452.171 C 4.43026 441.596 5.84653 431.051 7.5275 420.547 C 15.7049 372.387 31.2294 328.701 52.5834 284.963 C 113.444 159.342 223.637 64.556 356.943 23.157 C 378.227 16.6861 401.323 11.7518 423.132 7.23838 C 434.28 4.93103 457.796 3.75487 467.458 0.283354 L 468.223 0 z"/>
<path transform="translate(0,0)" fill="rgb(0,0,0)" d="M 771.796 329.929 C 803.519 330.917 839.922 330.055 872.022 330.078 L 871.975 627.211 C 871.974 642.502 873.935 714.167 871.335 723.26 L 869.25 724.087 L 771.75 724.097 C 771.48 671.551 771.227 617.4 771.871 564.93 C 720.007 565.776 665.855 564.985 613.803 564.999 L 613.822 724.044 L 514.297 724.158 L 514.322 470.628 C 514.32 424.07 514.814 376.385 514.142 329.921 C 545.213 330.855 582.588 330.207 613.849 329.936 C 612.399 378.875 613.8 435.134 613.756 484.815 L 771.716 484.907 C 770.573 435.024 771.493 380.15 771.796 329.929 z"/>
<path transform="translate(0,0)" fill="rgb(0,0,0)" d="M 153.157 329.975 C 193.777 330.548 235.338 330.278 275.926 329.999 C 334.66 329.597 390.903 326.443 433.622 375.311 C 475.821 423.582 476.755 507.902 437.691 558.305 C 415.3 587.195 382.048 602.374 346.34 606.614 C 324.297 609.526 277.46 608.226 253.149 608.218 L 253.193 724.034 L 153.69 724.19 L 153.646 458.098 L 153.694 375.835 C 153.708 363.864 154.334 341.297 153.157 329.975 z"/>
<path transform="translate(0,0)" fill="rgb(255,146,0)" d="M 253.134 406.138 C 282.407 406.097 325.881 401.487 348.098 423.191 C 371.748 446.296 370.312 492 347.968 515.783 C 324.074 537.444 284.462 532.916 253.095 532.38 L 253.134 406.138 z"/>
</svg>