<svg version="1.1" xmlns="http://www.w3.org/2000/svg" style="display: block;" viewBox="0 0 1692 1692" width="423" height="423" preserveAspectRatio="none">
<defs>
	<linearGradient id="Gradient1" gradientUnits="userSpaceOnUse" x1="829.691" y1="983.544" x2="736.291" y2="1064.54">
		<stop class="stop0" offset="0" stop-opacity="1" stop-color="rgb(211,212,218)"/>
		<stop class="stop1" offset="1" stop-opacity="1" stop-color="rgb(255,255,255)"/>
	</linearGradient>
	<linearGradient id="Gradient2" gradientUnits="userSpaceOnUse" x1="828.914" y1="973.471" x2="1155.17" y2="675.624">
		<stop class="stop0" offset="0" stop-opacity="1" stop-color="rgb(157,163,182)"/>
		<stop class="stop1" offset="1" stop-opacity="1" stop-color="rgb(184,185,192)"/>
	</linearGradient>
	<linearGradient id="Gradient3" gradientUnits="userSpaceOnUse" x1="1155.83" y1="112.121" x2="662.186" y2="590.724">
		<stop class="stop0" offset="0" stop-opacity="1" stop-color="rgb(115,255,210)"/>
		<stop class="stop1" offset="1" stop-opacity="1" stop-color="rgb(91,240,236)"/>
	</linearGradient>
	<linearGradient id="Gradient4" gradientUnits="userSpaceOnUse" x1="685.749" y1="745.766" x2="-20.5784" y2="1098.65">
		<stop class="stop0" offset="0" stop-opacity="1" stop-color="rgb(90,241,238)"/>
		<stop class="stop1" offset="1" stop-opacity="1" stop-color="rgb(16,190,252)"/>
	</linearGradient>
</defs>
<path transform="translate(0,0)" fill="url(#Gradient4)" d="M 260.499 1569.63 C 248.008 1555.57 234.689 1542.83 221.689 1527.9 C 185.252 1485.96 153.031 1440.54 125.492 1392.29 C 15.5191 1198.86 -12.4658 969.463 47.7803 755.271 C 92.9513 593.969 185.687 450.025 313.889 342.216 C 338.755 321.153 380.644 289.53 409.145 273.277 C 407.169 277.298 405.371 278.061 401.701 280.339 L 400.742 282.22 L 403.94 283.141 C 403.143 288.799 396.576 290.482 396.933 295.408 C 399.068 296.999 399.504 296.902 402.062 297.502 C 406.155 302.571 404.682 309.73 408.3 314.318 C 411.845 318.814 416.22 323.758 420.112 328.013 C 435.415 344.746 449.85 362.019 464.219 379.55 C 470.489 387.199 484.698 399.388 486.53 409.124 C 491.469 407.792 493.884 404.775 497.282 404.954 L 496.992 407.834 C 503.177 410.645 510.332 402.69 521.159 403.763 C 518.623 405.696 506.785 412.275 503.273 414.44 C 489.752 422.646 476.505 431.295 463.555 440.374 C 403.551 483.739 350.908 536.465 307.638 596.536 C 205.688 740.588 165.142 919.241 194.919 1093.19 C 214.521 1207.59 263.867 1314.83 338.006 1404.14 C 347.472 1415.45 368.579 1440.74 379.979 1448.8 C 353.22 1476.99 324.506 1504.23 297.306 1532.05 C 285.201 1544.44 271.982 1556.76 260.499 1569.63 z"/>
<path transform="translate(0,0)" fill="rgb(239,239,240)" d="M 1439.78 402.248 C 1466.76 431.303 1491.07 459.338 1514.42 491.481 C 1597.84 606.897 1650.47 741.659 1667.36 883.055 C 1672.15 926.091 1673.39 976.603 1671.81 1020.2 C 1664.39 1180.15 1610.87 1334.55 1517.69 1464.77 C 1500.56 1488.52 1482.3 1511.44 1462.96 1533.43 C 1452.34 1545.41 1440.72 1557.02 1429.96 1569.07 C 1391.3 1529.61 1349.39 1489.24 1311.63 1449.35 C 1334.99 1424.71 1355.36 1402.09 1375.62 1374.54 C 1461.94 1257.74 1507.36 1115.74 1504.85 970.528 C 1500.6 807.86 1446.51 662.874 1338.73 540.52 C 1332.97 533.972 1325.95 527.666 1320.46 521.153 C 1359.99 481.273 1399.76 441.637 1439.78 402.248 z"/>
<path transform="translate(0,0)" fill="url(#Gradient3)" d="M 409.145 273.277 C 518.4 201.531 674.4 155.948 804.524 149.419 C 873.841 146.411 943.264 151.987 1011.21 166.02 C 1143.34 193.112 1266.81 252.193 1370.8 338.086 C 1392.66 356.015 1420.98 381.217 1439.78 402.248 C 1399.76 441.637 1359.99 481.273 1320.46 521.153 C 1306.96 508.178 1293.56 495.061 1279.65 482.533 C 1075.06 298.323 760.701 264.793 521.159 403.763 C 510.332 402.69 503.177 410.645 496.992 407.834 L 497.282 404.954 C 493.884 404.775 491.469 407.792 486.53 409.124 C 484.698 399.388 470.489 387.199 464.219 379.55 C 449.85 362.019 435.415 344.746 420.112 328.013 C 416.22 323.758 411.845 318.814 408.3 314.318 C 404.682 309.73 406.155 302.571 402.062 297.502 C 399.504 296.902 399.068 296.999 396.933 295.408 C 396.576 290.482 403.143 288.799 403.94 283.141 L 400.742 282.22 L 401.701 280.339 C 405.371 278.061 407.169 277.298 409.145 273.277 z"/>
<path transform="translate(0,0)" fill="url(#Gradient2)" d="M 1155.24 597.697 C 1167.07 608.993 1196.77 641.39 1207.55 648.799 C 1195.62 662.303 1175.76 684.531 1163.16 696.622 C 1150.85 712.323 1122.21 741.379 1107.8 756.951 L 992.698 881.354 L 912.685 968.13 C 907.812 973.399 890.676 993.49 885.634 997.147 C 877.371 1006.37 869.002 1015.5 860.528 1024.53 C 842.042 1042.97 824.003 1064.97 805.518 1083.77 C 799.792 1089.6 788.156 1103.58 782.041 1107.68 C 772.63 1102.38 707.367 1035.4 697.444 1024.1 C 712.755 1004.96 739.133 986.434 756.129 967.95 C 761.461 962.151 773.621 951.163 779.969 946.873 C 783.269 942.48 808.393 919.981 813.785 915.173 C 815.395 912.804 838.866 891.927 842.372 888.728 L 902.627 832.943 L 1017.09 726.636 C 1041.74 703.435 1071.94 673.883 1097.26 651.863 C 1116.84 634.081 1136.17 616.024 1155.24 597.697 z"/>
<path transform="translate(0,0)" fill="url(#Gradient1)" d="M 779.969 946.873 C 784.499 945.452 785.042 944.802 788.531 941.51 C 790.1 942.277 794.87 944.597 795.893 945.803 C 815.914 969.386 834.939 993.783 855.849 1016.62 C 857.418 1018.33 860.043 1022.34 860.528 1024.53 C 842.042 1042.97 824.003 1064.97 805.518 1083.77 C 799.792 1089.6 788.156 1103.58 782.041 1107.68 C 772.63 1102.38 707.367 1035.4 697.444 1024.1 C 712.755 1004.96 739.133 986.434 756.129 967.95 C 761.461 962.151 773.621 951.163 779.969 946.873 z"/>
<path transform="translate(0,0)" fill="rgb(239,239,240)" d="M 1155.24 597.697 C 1167.07 608.993 1196.77 641.39 1207.55 648.799 C 1195.62 662.303 1175.76 684.531 1163.16 696.622 L 1162.26 694.699 L 1163.75 692.564 L 1161.48 692.62 C 1159.35 694.181 1159.03 694.636 1156.46 695.389 C 1148.12 690.454 1150.77 681.434 1146.68 675.051 C 1140.68 666.109 1134.14 658.302 1125.85 651.427 C 1120.84 647.275 1117.53 643.187 1119.46 637.011 L 1118.69 636.63 C 1111.46 641.012 1104.04 650.611 1098.66 653.326 L 1097.26 651.863 C 1116.84 634.081 1136.17 616.024 1155.24 597.697 z"/>
<path transform="translate(0,0)" fill="rgb(239,239,240)" d="M 813.785 915.173 L 814.413 917.579 C 809.926 922.333 801.207 930 795.953 934.093 C 805.752 938.274 822.25 959.701 829.022 969.517 C 835.853 979.417 863.688 1005.83 866.046 1013.94 L 867.158 1014.17 C 871.122 1010.57 882.199 995.827 884.934 995.843 L 885.634 997.147 C 877.371 1006.37 869.002 1015.5 860.528 1024.53 C 860.043 1022.34 857.418 1018.33 855.849 1016.62 C 834.939 993.783 815.914 969.386 795.893 945.803 C 794.87 944.597 790.1 942.277 788.531 941.51 C 785.042 944.802 784.499 945.452 779.969 946.873 C 783.269 942.48 808.393 919.981 813.785 915.173 z"/>
</svg>