<svg xmlns="http://www.w3.org/2000/svg" xmlns:xlink="http://www.w3.org/1999/xlink" version="1.1" width="256" height="256" viewBox="0 0 256 256" xml:space="preserve">
<g style="stroke: none; stroke-width: 0; stroke-dasharray: none; stroke-linecap: butt; stroke-linejoin: miter; stroke-miterlimit: 10; fill: none; fill-rule: nonzero; opacity: 1;" transform="translate(1.4065934065934016 1.4065934065934016) scale(2.81 2.81)">
	<path d="M 83.494 76.291 H 6.506 C 2.913 76.291 0 73.379 0 69.786 V 20.214 c 0 -3.593 2.913 -6.506 6.506 -6.506 h 76.988 c 3.593 0 6.506 2.913 6.506 6.506 v 49.571 C 90 73.379 87.087 76.291 83.494 76.291 z" style="stroke: none; stroke-width: 1; stroke-dasharray: none; stroke-linecap: butt; stroke-linejoin: miter; stroke-miterlimit: 10; fill: rgb(255,0,0); fill-rule: nonzero; opacity: 1;" transform=" matrix(1 0 0 1 0 0) " stroke-linecap="round"/>
	<path d="M 36.457 53.756 L 54.9 43.107 c 0.904 -0.522 0.904 -1.828 0 -2.35 l -18.443 -10.65 c -0.904 -0.522 -2.035 0.13 -2.035 1.175 v 21.299 C 34.422 53.626 35.552 54.278 36.457 53.756 z" style="stroke: none; stroke-width: 1; stroke-dasharray: none; stroke-linecap: butt; stroke-linejoin: miter; stroke-miterlimit: 10; fill: rgb(255,255,255); fill-rule: nonzero; opacity: 1;" transform=" matrix(1 0 0 1 0 0) " stroke-linecap="round"/>
	<path d="M 81.317 67.598 h -6.608 c -0.565 0 -1.023 -0.457 -1.023 -1.023 c 0 -0.565 0.457 -1.023 1.023 -1.023 h 6.608 c 0.565 0 1.023 0.457 1.023 1.023 C 82.34 67.14 81.882 67.598 81.317 67.598 z" style="stroke: none; stroke-width: 1; stroke-dasharray: none; stroke-linecap: butt; stroke-linejoin: miter; stroke-miterlimit: 10; fill: rgb(255,124,124); fill-rule: nonzero; opacity: 1;" transform=" matrix(1 0 0 1 0 0) " stroke-linecap="round"/>
	<path d="M 65.764 67.598 H 21.513 c -0.565 0 -1.023 -0.457 -1.023 -1.023 c 0 -0.565 0.458 -1.023 1.023 -1.023 h 44.251 c 0.565 0 1.023 0.457 1.023 1.023 C 66.787 67.14 66.329 67.598 65.764 67.598 z" style="stroke: none; stroke-width: 1; stroke-dasharray: none; stroke-linecap: butt; stroke-linejoin: miter; stroke-miterlimit: 10; fill: rgb(255,124,124); fill-rule: nonzero; opacity: 1;" transform=" matrix(1 0 0 1 0 0) " stroke-linecap="round"/>
	<path d="M 14.992 67.598 H 8.684 c -0.565 0 -1.023 -0.457 -1.023 -1.023 c 0 -0.565 0.458 -1.023 1.023 -1.023 h 6.309 c 0.565 0 1.023 0.457 1.023 1.023 C 16.015 67.14 15.557 67.598 14.992 67.598 z" style="stroke: none; stroke-width: 1; stroke-dasharray: none; stroke-linecap: butt; stroke-linejoin: miter; stroke-miterlimit: 10; fill: rgb(255,124,124); fill-rule: nonzero; opacity: 1;" transform=" matrix(1 0 0 1 0 0) " stroke-linecap="round"/>
	<circle cx="18.25" cy="66.58" r="3.26" style="stroke: none; stroke-width: 1; stroke-dasharray: none; stroke-linecap: butt; stroke-linejoin: miter; stroke-miterlimit: 10; fill: rgb(255,124,124); fill-rule: nonzero; opacity: 1;" transform="  matrix(1 0 0 1 0 0) "/>
</g>
</svg>