<svg xmlns="http://www.w3.org/2000/svg" xmlns:xlink="http://www.w3.org/1999/xlink" version="1.1" width="256" height="256" viewBox="0 0 256 256" xml:space="preserve">
<g style="stroke: none; stroke-width: 0; stroke-dasharray: none; stroke-linecap: butt; stroke-linejoin: miter; stroke-miterlimit: 10; fill: none; fill-rule: nonzero; opacity: 1;" transform="translate(1.4065934065934016 1.4065934065934016) scale(2.81 2.81)">
	<path d="M 45 77.4 c -2.729 0 -26.857 -0.052 -33.595 -1.858 c -4.646 -1.241 -8.305 -4.9 -9.548 -9.55 C 0.021 59.142 0 45.574 0 45 s 0.021 -14.142 1.857 -20.994 c 1.243 -4.646 4.902 -8.306 9.55 -9.548 C 18.143 12.652 42.271 12.6 45 12.6 c 2.729 0 26.857 0.052 33.594 1.857 c 4.647 1.243 8.307 4.902 9.549 9.55 C 89.979 30.861 90 44.426 90 45 s -0.021 14.142 -1.858 20.994 c -1.241 4.646 -4.901 8.307 -9.55 9.549 C 71.857 77.349 47.729 77.4 45 77.4 z" style="stroke: none; stroke-width: 1; stroke-dasharray: none; stroke-linecap: butt; stroke-linejoin: miter; stroke-miterlimit: 10; fill: rgb(255,0,0); fill-rule: nonzero; opacity: 1;" transform=" matrix(1 0 0 1 0 0) " stroke-linecap="round"/>
	<path d="M 36.758 58.972 l 21.794 -12.584 c 1.069 -0.617 1.069 -2.16 0 -2.777 L 36.758 31.028 c -1.069 -0.617 -2.405 0.154 -2.405 1.388 v 25.168 C 34.353 58.818 35.689 59.589 36.758 58.972 z" style="stroke: none; stroke-width: 1; stroke-dasharray: none; stroke-linecap: butt; stroke-linejoin: miter; stroke-miterlimit: 10; fill: rgb(255,255,255); fill-rule: nonzero; opacity: 1;" transform=" matrix(1 0 0 1 0 0) " stroke-linecap="round"/>
	<path d="M 59.093 44.274 L 34.814 58.905 l 18.418 18.418 c 8.463 -0.146 20.834 -0.567 25.359 -1.78 c 2.846 -0.761 5.314 -2.435 7.091 -4.68 L 59.093 44.274 z" style="stroke: none; stroke-width: 1; stroke-dasharray: none; stroke-linecap: butt; stroke-linejoin: miter; stroke-miterlimit: 10; fill: rgb(216,0,0); fill-rule: nonzero; opacity: 1;" transform=" matrix(1 0 0 1 0 0) " stroke-linecap="round"/>
</g>
</svg>